<svg xmlns:xlink="http://www.w3.org/1999/xlink" xmlns="http://www.w3.org/2000/svg" version="1.1" viewBox="0 0 600 600" height="600px" width="600px">
    <title>加载中</title>
    <defs>
        <linearGradient id="linearGradient-1" y2="100%" x2="40.7922325%" y1="98.8%" x1="92.5182204%">
            <stop offset="0%" stop-opacity="0" stop-color="#E0E5EF"></stop>
            <stop offset="100%" stop-color="#E0E5EF"></stop>
        </linearGradient>
        <linearGradient id="linearGradient-2" y2="100%" x2="40.8959812%" y1="98.8%" x1="92.0391457%">
            <stop offset="0%" stop-opacity="0" stop-color="#E0E5EF"></stop>
            <stop offset="100%" stop-color="#E0E5EF"></stop>
        </linearGradient>
        <linearGradient id="linearGradient-3" y2="67.4197726%" x2="29.5159577%" y1="67.001698%" x1="144.588078%">
            <stop offset="0%" stop-opacity="0" stop-color="#E0E5EF"></stop>
            <stop offset="100%" stop-color="#E0E5EF"></stop>
        </linearGradient>
        <linearGradient id="linearGradient-4" y2="64.768431%" x2="29.5159577%" y1="64.4139887%" x1="144.588078%">
            <stop offset="0%" stop-opacity="0" stop-color="#E0E5EF"></stop>
            <stop offset="100%" stop-color="#E0E5EF"></stop>
        </linearGradient>
        <linearGradient id="linearGradient-5" y2="-26.8681996%" x2="50%" y1="100%" x1="50%">
            <stop offset="0%" stop-color="#A2ABB9"></stop>
            <stop offset="100%" stop-color="#E7EAF0"></stop>
        </linearGradient>
        <linearGradient id="linearGradient-6" y2="-11.2257991%" x2="50%" y1="100%" x1="50%">
            <stop offset="0%" stop-color="#A2ABB9"></stop>
            <stop offset="100%" stop-color="#E7EAF0"></stop>
        </linearGradient>
        <linearGradient id="linearGradient-7" y2="0%" x2="50%" y1="100%" x1="50%">
            <stop offset="0%" stop-color="#A2ABB9"></stop>
            <stop offset="100%" stop-color="#E7EAF0"></stop>
        </linearGradient>
        <linearGradient id="linearGradient-8" y2="25.5392813%" x2="72.4248367%" y1="83.7579731%" x1="17.2589236%">
            <stop offset="0%" stop-color="#A2ABB9"></stop>
            <stop offset="100%" stop-color="#E7EAF0"></stop>
        </linearGradient>
        <linearGradient id="linearGradient-9" y2="-26.8681996%" x2="50%" y1="100%" x1="50%">
            <stop offset="0%" stop-color="#A2ABB9"></stop>
            <stop offset="100%" stop-color="#E7EAF0"></stop>
        </linearGradient>
        <linearGradient id="linearGradient-10" y2="-11.2257991%" x2="50%" y1="100%" x1="50%">
            <stop offset="0%" stop-color="#A2ABB9"></stop>
            <stop offset="100%" stop-color="#E7EAF0"></stop>
        </linearGradient>
        <linearGradient id="linearGradient-11" y2="-11.2257991%" x2="50%" y1="100%" x1="50%">
            <stop offset="0%" stop-color="#FFFFFF"></stop>
            <stop offset="100%" stop-color="#E7EAF0"></stop>
        </linearGradient>
        <linearGradient id="linearGradient-12" y2="-11.2257991%" x2="50%" y1="100%" x1="50%">
            <stop offset="0%" stop-color="#FFFFFF"></stop>
            <stop offset="100%" stop-color="#E7EAF0"></stop>
        </linearGradient>
    </defs>
    <g fill-rule="evenodd" fill="none" stroke-width="1" stroke="none" id="加载中">
        <path opacity="0.60159418" fill="#F3F3FA" id="背景" d="M314.367308,66 C365.402047,66 412.459601,82.7621592 450.168202,110.998683 L435,111 C427.820298,111 422,116.820298 422,124 L422,124 L422,125 C422,132.179702 427.820298,138 435,138 L435,138 L480.178198,137.999242 C488.748983,147.235916 496.533899,157.191223 503.428804,167.762649 L524.876923,167.762791 C532.60891,167.762791 538.876923,174.030804 538.876923,181.762791 L538.876923,182.544186 C538.876923,188.932 534.59881,194.320607 528.751467,196.001125 L509,196 C500.163444,196 493,203.163444 493,212 L493,212 L493,217 C493,225.836556 500.163444,233 509,233 L509,233 L576.901402,232.999959 C583.852284,234.741603 589,241.03011 589,248.52093 L589,249.413953 C589,258.250509 581.836556,265.413953 573,265.413953 L537.819517,265.412835 C538.518998,272.515523 538.876923,279.716616 538.876923,287 C538.876923,409.05493 438.360544,508 314.367308,508 C215.189346,508 131.031537,444.696384 101.318282,356.897256 L92.8924419,356.897674 C89.4862578,356.897674 86.725,354.136417 86.725,350.730233 C86.725,348.131567 88.3322058,345.908285 90.6068281,345.000174 L101,345 C108.179702,345 114,339.179702 114,332 L114,332 L114,331 C114,323.820298 108.179702,318 101,318 L101,318 L92.0490717,318.000249 C92.0414555,317.94684 92.0338587,317.893426 92.0262812,317.840005 L69.8540698,317.837209 C64.1770963,317.837209 59.575,313.235113 59.575,307.55814 C59.575,301.881166 64.1770963,297.27907 69.8540698,297.27907 L90.0963108,297.280676 C89.9378097,293.873341 89.8576923,290.445881 89.8576923,287 C89.8576923,254.369974 97.0416047,223.391611 109.937457,195.513874 L74,195.516279 C58.536027,195.516279 46,182.980252 46,167.516279 L46,165.953488 C46,151.030754 57.6738617,138.834597 72.387455,137.999146 L199,138 C204.522847,138 209,133.522847 209,128 C209,122.477153 204.522847,118 199,118 L199,118 L169.69142,117.999011 C169.935414,117.796407 170.179853,117.594307 170.424735,117.392711 L155.848077,117.395349 C145.354667,117.395349 136.848077,108.888759 136.848077,98.3953488 L136.848077,97.3348837 C136.848077,86.8414735 145.354667,78.3348837 155.848077,78.3348837 L240.230522,78.3331487 C263.439795,70.3435511 288.388251,66 314.367308,66 Z"></path>
        <g fill-rule="nonzero" transform="translate(122.000000, 350.000000)" id="树">
            <path fill="url(#linearGradient-1)" id="路径" d="M58.0342261,43.3864542 C58.1512897,43.8539178 58.297619,44.3505977 58.4732143,44.876494 L58.8244047,46.2788845 C58.9414682,46.746348 59,47.1261621 59,47.4183267 C59,49.0544489 58.5610119,50.500664 57.6830357,51.7569721 C56.8050595,53.0132802 55.6636905,53.933599 54.2589286,54.5179283 C53.7321429,54.5763612 53.1760913,54.6055777 52.5907738,54.6055777 C52.1225198,54.6640106 51.5957341,54.693227 51.0104167,54.693227 L49.3422619,54.693227 L35.6458333,54.8685259 L35.6458333,69.505976 C35.6458333,71.6679947 35.6897321,73.8446215 35.7775297,76.0358565 C35.8653273,78.2270916 35.9677579,80.1992032 36.0848214,81.9521912 C36.2018849,84.0557769 36.3482143,86.0717131 36.5238095,88 L23.8809524,88 L24.1443452,84.5816733 C24.202877,83.2377159 24.2614087,81.4116866 24.3199405,79.1035857 C24.3784723,76.7954847 24.4077382,73.7131474 24.4077381,69.8565737 L24.4077381,56.4462151 C23.4126984,57.3227092 22.3005953,57.7609562 21.0714286,57.7609562 C20.0763889,57.7609562 19.2130457,57.5272244 18.4813989,57.0597609 C17.749752,56.5922974 17.1498016,55.9495352 16.6815476,55.1314741 L6.7604167,54.6055777 C4.82886905,54.1381142 3.21924603,53.1593625 1.93154762,51.6693227 C0.643849205,50.1792828 0,48.4116866 0,46.3665339 C0,46.0159362 0.0292658638,45.6945551 0.0877975915,45.4023904 C0.146329319,45.1102257 0.234126939,44.818061 0.351190452,44.5258964 L2.54613093,39.4422311 C2.66319444,38.1567065 3.02901785,36.9588314 3.64360117,35.8486056 C4.25818448,34.7383798 5.0337301,33.7742364 5.97023803,32.9561753 L19.7544642,7.45019919 L19.8422618,7.45019919 C20.954365,5.40504648 22.2713292,3.65205843 23.7931546,2.19123506 C25.31498,0.730411687 27.2757935,0 29.6755951,0 C31.7827379,0 33.6703867,0.55511288 35.3385415,1.66533864 C37.0066963,2.7755644 38.2504959,4.23638777 39.0699404,6.04780876 L50.1324403,27.6972112 C52.1225197,28.3984064 53.7614086,29.625498 55.049107,31.378486 C56.3368054,33.131474 56.9806546,35.1474103 56.9806546,37.4262948 C56.9806546,38.3612217 56.8343252,39.3545816 56.5416665,40.4063745 L58.0342261,43.3864542 Z"></path>
            <path fill="url(#linearGradient-1)" id="路径" d="M368.034226,43.3864542 C368.15129,43.8539178 368.297619,44.3505977 368.473214,44.876494 L368.824405,46.2788845 C368.941468,46.746348 369,47.1261621 369,47.4183267 C369,49.0544489 368.561012,50.500664 367.683036,51.7569721 C366.805059,53.0132802 365.66369,53.933599 364.258929,54.5179283 C363.732143,54.5763612 363.176091,54.6055777 362.590774,54.6055777 C362.12252,54.6640106 361.595734,54.693227 361.010417,54.693227 L359.342262,54.693227 L345.645833,54.8685259 L345.645833,69.505976 C345.645833,71.6679947 345.689732,73.8446215 345.77753,76.0358565 C345.865327,78.2270916 345.967758,80.1992032 346.084821,81.9521912 C346.201885,84.0557769 346.348214,86.0717131 346.52381,88 L333.880952,88 L334.144345,84.5816733 C334.202877,83.2377159 334.261409,81.4116866 334.319941,79.1035857 C334.378472,76.7954847 334.407738,73.7131474 334.407738,69.8565737 L334.407738,56.4462151 C333.412698,57.3227092 332.300595,57.7609562 331.071429,57.7609562 C330.076389,57.7609562 329.213046,57.5272244 328.481399,57.0597609 C327.749752,56.5922974 327.149802,55.9495352 326.681548,55.1314741 L316.760417,54.6055777 C314.828869,54.1381142 313.219246,53.1593625 311.931548,51.6693227 C310.643849,50.1792828 310,48.4116866 310,46.3665339 C310,46.0159362 310.029266,45.6945551 310.087798,45.4023904 C310.146329,45.1102257 310.234127,44.818061 310.35119,44.5258964 L312.546131,39.4422311 C312.663194,38.1567065 313.029018,36.9588314 313.643601,35.8486056 C314.258184,34.7383798 315.03373,33.7742364 315.970238,32.9561753 L329.754464,7.45019919 L329.842262,7.45019919 C330.954365,5.40504648 332.271329,3.65205843 333.793155,2.19123506 C335.31498,0.730411687 337.275793,0 339.675595,0 C341.782738,0 343.670387,0.55511288 345.338542,1.66533864 C347.006696,2.7755644 348.250496,4.23638777 349.06994,6.04780876 L360.13244,27.6972112 C362.12252,28.3984064 363.761409,29.625498 365.049107,31.378486 C366.336805,33.131474 366.980655,35.1474103 366.980655,37.4262948 C366.980655,38.3612217 366.834325,39.3545816 366.541666,40.4063745 L368.034226,43.3864542 Z"></path>
            <path fill="url(#linearGradient-2)" id="路径" d="M331.247024,53.0189244 C331.338294,53.3854582 331.452381,53.7749005 331.589286,54.187251 L331.863095,55.2868526 C331.954365,55.6533865 332,55.9511952 332,56.1802789 C332,57.4631474 331.657738,58.5971116 330.973214,59.5821713 C330.28869,60.5672311 329.39881,61.2888446 328.303571,61.747012 C327.892857,61.7928287 327.459325,61.815737 327.002976,61.815737 C326.637897,61.8615538 326.227183,61.8844621 325.770833,61.8844621 L324.470238,61.8844621 L313.791667,62.0219123 L313.791667,73.4990039 C313.791667,75.1942231 313.825893,76.9008964 313.894345,78.6190239 C313.962798,80.3371514 314.042659,81.8834661 314.133929,83.2579681 C314.225198,84.9073705 314.339286,86.4880478 314.47619,88 L304.619048,88 L304.824405,85.3197211 C304.87004,84.2659363 304.915675,82.8341634 304.96131,81.0244024 C305.006945,79.2146414 305.029762,76.7978088 305.029762,73.7739044 L305.029762,63.2589642 C304.253968,63.9462152 303.386905,64.2898407 302.428571,64.2898407 C301.652778,64.2898407 300.979663,64.1065737 300.409226,63.7400398 C299.83879,63.3735059 299.371032,62.8695219 299.005952,62.2280876 L291.270833,61.815737 C289.764881,61.4492032 288.509921,60.6817729 287.505952,59.5134462 C286.501984,58.3451195 286,56.9591633 286,55.3555777 C286,55.0806773 286.022817,54.8286852 286.068452,54.5996016 C286.114087,54.3705179 286.18254,54.1414342 286.27381,53.9123506 L287.985119,49.9262948 C288.076389,48.9183267 288.361607,47.9790837 288.840774,47.1085658 C289.31994,46.2380478 289.924603,45.4820717 290.654762,44.8406374 L301.401786,24.8416335 L301.470238,24.8416335 C302.337301,23.2380478 303.364087,21.8635458 304.550595,20.7181275 C305.737103,19.5727092 307.265873,19 309.136905,19 C310.779762,19 312.251488,19.435259 313.552083,20.3057769 C314.852678,21.1762948 315.822421,22.3217131 316.461309,23.7420319 L325.086309,40.7171315 C326.637897,41.2669323 327.915674,42.2290837 328.919643,43.6035856 C329.923611,44.9780876 330.425595,46.5587649 330.425595,48.3456175 C330.425595,49.0786852 330.311508,49.8575697 330.083333,50.6822709 L331.247024,53.0189244 Z"></path>
        </g>
        <path fill="#E7EAF0" id="形状结合" d="M284.5,415 C345.879626,415 401.152405,420.00678 439.78802,428.003897 C477.575063,428.25539 508,439.574053 508,453.5 C508,464.536605 488.890416,473.935603 462.149089,477.485699 C455.766823,479.373982 448.582636,481.153843 440.691453,482.807922 C440.896873,483.861698 441,484.926358 441,486 C441,510.300529 388.1696,530 323,530 C264.367989,530 215.723701,514.054651 206.554085,493.159086 C128.319357,487.218328 73,472.596236 73,455.5 C73,433.132468 167.691775,415 284.5,415 Z"></path>
        <ellipse ry="9" rx="34.5" cy="466.098743" cx="308.5" fill-rule="nonzero" fill="#D1D6E2" id="椭圆形"></ellipse>
        <path fill-rule="nonzero" fill="url(#linearGradient-3)" id="路径" d="M445.379464,162.3125 C445.379464,168.25 439.81942,173 432.796205,173 L393.875893,173 C386.852679,172.525 381,168.0125 381,161.8375 C381,157.8 383.633705,154.2375 387.437946,152.3375 C387.145313,151.625 386.852679,150.9125 386.852679,150.2 C386.852679,146.1625 390.65692,142.6 395.631696,142.6 C397.680134,142.6 399.435938,143.3125 400.899107,144.2625 C404.410714,138.8 410.848661,135 418.457143,135 C428.991964,135 437.478348,142.3625 437.478348,151.3875 L437.478348,152.3375 C442.160491,154 445.379464,157.8 445.379464,162.3125 Z"></path>
        <path fill-rule="nonzero" fill="url(#linearGradient-4)" id="路径" d="M212,208.9375 C212,216.75 204.054545,223 194.018182,223 L138.4,223 C128.363636,222.375 120,216.4375 120,208.3125 C120,203 123.763636,198.3125 129.2,195.8125 C128.781818,194.875 128.363636,193.9375 128.363636,193 C128.363636,187.6875 133.8,183 140.909091,183 C143.836364,183 146.345455,183.9375 148.436364,185.1875 C153.454545,178 162.654545,173 173.527273,173 C188.581818,173 200.709091,182.6875 200.709091,194.5625 L200.709091,195.8125 C207.4,198 212,203 212,208.9375 Z"></path>
        <g fill-rule="nonzero" transform="translate(222.303556, 150.000000)" id="火箭">
            <path fill="url(#linearGradient-5)" id="路径-2" d="M34.6624027,103.330245 C9.68105974,118.469173 -1.79716208,134.509053 0.227737184,151.449883 C2.25263645,168.390714 5.24901612,184.601276 9.2168762,200.08157 C14.9910449,207.439821 21.6811689,208.299431 29.2872483,202.6604 C36.8933277,197.021368 47.0724499,188.421611 59.8246147,176.86113 L34.6624027,103.330245 Z"></path>
            <path transform="translate(149.912307, 154.830245) scale(-1, 1) translate(-149.912307, -154.830245)" fill="url(#linearGradient-5)" id="路径-2备份" d="M154.662403,103.330245 C129.68106,118.469173 118.202838,134.509053 120.227737,151.449883 C122.252636,168.390714 125.249016,184.601276 129.216876,200.08157 C134.991045,207.439821 141.681169,208.299431 149.287248,202.6604 C156.893328,197.021368 167.07245,188.421611 179.824615,176.86113 L154.662403,103.330245 Z"></path>
            <path fill="url(#linearGradient-6)" id="路径" d="M121.838437,187 C181.332799,97.4572058 113.85719,21.224827 94.2082338,1.98352236 C91.5376791,-0.635385656 86.7562304,-0.663790298 84.0309263,1.91535122 C64.0778069,20.8442048 -4.24946025,95.9006314 56.3581397,187 L121.838437,187 Z"></path>
            <path fill="url(#linearGradient-7)" id="路径" d="M93.956838,1.99685898 C91.4127096,-0.622951214 86.8554521,-0.674657994 84.247137,1.89919061 C77.174927,8.86811553 63.7657366,23.5183699 52.6964441,44 L124.696444,44 C113.74969,23.7654134 100.795642,9.05196186 93.956838,1.99685898 Z"></path>
            <path fill="#D9DFE8" id="路径" d="M121.895324,187 C123.978868,183.985463 125.916624,180.981829 127.696444,178 L50.6964441,178 C52.4884132,180.981829 54.2685216,183.980012 56.3581397,187 L121.895324,187 Z"></path>
            <path transform="translate(88.828877, 220.621320) rotate(-45.000000) translate(-88.828877, -220.621320)" fill="url(#linearGradient-8)" id="路径" d="M102.378678,255.921818 C100.664935,256.992363 99.4346704,258.242641 97.6725637,258.242641 C96.9849123,258.242641 96.2542828,258.113706 95.4806752,257.812859 C92.6656026,256.781382 91.3117889,254.696938 91.1828544,251.77442 C91.096898,249.926357 91.1398762,248.078295 91.096898,246.230231 C91.0324306,244.038343 91.0109415,243.243246 90.1513774,243.243246 C89.6786171,243.243246 88.9694766,243.479626 87.8735322,243.844941 C81.190421,246.058319 74.5287986,248.293185 67.8456873,250.506563 C66.8356994,250.850389 65.8042224,251.086769 64.8157236,251.086769 C63.870203,251.086769 62.9246825,250.871878 61.9791619,250.356139 C59.1211111,248.744457 58.0466558,245.886406 59.1855784,242.383682 C61.3989563,235.528658 63.7412685,228.695123 65.9976244,221.840098 C66.9861232,218.874602 66.9216558,218.810135 63.7197792,218.745667 C61.7857599,218.724178 59.8517405,218.745667 57.9177212,218.659711 C55.1026486,218.530776 53.1041619,217.155474 52.0511958,214.490825 C51.0412079,211.890643 52.3893752,210.134362 53.5769222,207.721757 C59.6586268,195.366242 74.9186755,185.875734 76.4935943,184.805085 C77.8003364,183.916745 78.9433522,183 80.3831221,183 C80.5335459,183 80.6839695,183 80.8129042,183.021489 C84.1866935,183.064467 86.0562455,184.568705 87.2811245,188.006961 C92.0302165,201.545097 100.668836,211.7954 113.196984,218.757869 C115.969079,220.283596 118.870108,221.529963 121.878582,222.561441 C127.315326,224.409504 126.348316,231.909201 124.521742,233.735775 C119.939604,241.787237 117.34953,246.569783 102.378678,255.921818 Z"></path>
            <polygon points="56.3581397 187 121.696444 187 121.696444 196 56.3581397 196" fill="#909AA9" id="矩形"></polygon>
            <circle r="30" cy="90" cx="88.8301296" fill="#ECF1FF" id="椭圆形"></circle>
            <circle r="20" cy="90" cx="88.8301296" fill="url(#linearGradient-9)" id="椭圆形"></circle>
            <path fill="url(#linearGradient-10)" id="路径" d="M88.2412954,150 C88.2412954,150 62.3637449,170.808814 88.0941674,225 C114.113187,171.386315 88.2412954,150 88.2412954,150 Z"></path>
        </g>
        <g fill-rule="nonzero" transform="translate(188.000000, 367.000000)" id="编组">
            <path fill="#D1D6E2" id="三角形" d="M29.7275578,2.96152766 L54.2454838,44.9922579 C54.8020444,45.9463618 54.4797719,47.1709972 53.5256681,47.7275578 C53.2197959,47.9059832 52.8720353,48 52.517926,48 L3.482074,48 C2.3775045,48 1.482074,47.1045695 1.482074,46 C1.482074,45.6458907 1.57609079,45.2981301 1.7545162,44.9922579 L26.2724422,2.96152766 C26.8290028,2.00742383 28.0536382,1.68515134 29.0077421,2.24171191 C29.3057493,2.41554948 29.5537202,2.66352039 29.7275578,2.96152766 Z"></path>
            <rect height="64" width="6" y="38" x="25" fill="#D1D6E2" id="矩形"></rect>
            <path transform="translate(28.500000, 28.500000) scale(-1, 1) translate(-28.500000, -28.500000)" fill="url(#linearGradient-11)" id="形状" d="M27,32.25 C27.25,33 27.75,33.5 28.5,33.5 C29.25,33.5 29.75,33 30,32.25 L31,18.5 C31,17 29.75,16 28.5,16 C27,16 26,17.25 26,18.75 L27,32.25 Z M28.5,36 C27,36 26,37 26,38.5 C26,40 27,41 28.5,41 C30,41 31,40 31,38.5 C31,37 30,36 28.5,36 Z"></path>
        </g>
        <g fill-rule="nonzero" transform="translate(259.044647, 491.729054) rotate(118.000000) translate(-259.044647, -491.729054) translate(236.544647, 440.963712)" opacity="0.2" id="编组备份">
            <path fill="#D1D6E2" id="三角形" d="M24.3109179,3.86329146 L43.6645932,45.1511322 C44.13341,46.1512746 43.7026854,47.3421012 42.7025431,47.8109179 C42.4368817,47.9354467 42.1470751,48 41.8536754,48 L3.14632463,48 C2.04175513,48 1.14632463,47.1045695 1.14632463,46 C1.14632463,45.7066002 1.21087796,45.4167937 1.33540676,45.1511322 L20.6890821,3.86329146 C21.1578988,2.86314914 22.3487254,2.43242463 23.3488678,2.90124134 C23.7721249,3.09964311 24.1125161,3.44003436 24.3109179,3.86329146 Z"></path>
            <rect height="64" width="5" y="37.5306851" x="19.021883" fill="#D1D6E2" id="矩形"></rect>
            <path transform="translate(22.154975, 27.792223) scale(-1, 1) translate(-22.154975, -27.792223)" fill="url(#linearGradient-12)" id="形状" d="M20.9549747,31.5422233 C21.1549747,32.2922233 21.5549747,32.7922233 22.1549747,32.7922233 C22.7549747,32.7922233 23.1549747,32.2922233 23.3549747,31.5422233 L24.1549747,17.7922233 C24.1549747,16.2922233 23.1549747,15.2922233 22.1549747,15.2922233 C20.9549747,15.2922233 20.1549747,16.5422233 20.1549747,18.0422233 L20.9549747,31.5422233 Z M22.1549747,35.2922233 C20.9549747,35.2922233 20.1549747,36.2922233 20.1549747,37.7922233 C20.1549747,39.2922233 20.9549747,40.2922233 22.1549747,40.2922233 C23.3549747,40.2922233 24.1549747,39.2922233 24.1549747,37.7922233 C24.1549747,36.2922233 23.3549747,35.2922233 22.1549747,35.2922233 Z"></path>
        </g>
    </g>
</svg>